<?xml version="1.0" standalone="no"?>
<!DOCTYPE svg PUBLIC "-//W3C//DTD SVG 20010904//EN"
 "http://www.w3.org/TR/2001/REC-SVG-20010904/DTD/svg10.dtd">
<svg version="1.0" xmlns="http://www.w3.org/2000/svg"
 width="860.000000pt" height="900.000000pt" viewBox="0 0 860.000000 900.000000"
 preserveAspectRatio="xMidYMid meet">

<g transform="translate(0.000000,900.000000) scale(0.100000,-0.100000)"
fill="#FFFFFF" stroke="none">
<path d="M3925 8583 c-22 -2 -103 -13 -180 -24 -884 -129 -1651 -515 -2284
-1150 -596 -597 -963 -1324 -1118 -2214 -27 -158 -28 -164 -28 -595 0 -431 1
-437 28 -595 156 -896 523 -1621 1132 -2230 542 -543 1213 -912 1965 -1079
308 -69 390 -78 760 -83 399 -6 558 4 787 47 853 160 1572 535 2159 1126 307
309 544 643 739 1039 141 286 239 555 310 847 90 370 111 590 102 1048 -7 310
-13 374 -53 585 -159 825 -507 1499 -1072 2077 -293 300 -589 529 -927 716
-484 268 -1090 451 -1601 482 -156 9 -626 11 -719 3z m810 -522 c188 -24 292
-43 430 -77 810 -203 1525 -700 2008 -1396 254 -367 446 -805 541 -1237 67
-303 71 -342 71 -716 -1 -296 -4 -362 -24 -510 -99 -740 -419 -1398 -950
-1947 -586 -607 -1361 -980 -2179 -1049 -159 -13 -609 -7 -752 11 -597 73
-1078 258 -1580 606 -284 196 -658 568 -855 849 -324 462 -528 986 -600 1534
-55 416 -32 903 60 1275 160 652 469 1202 934 1666 496 495 1112 822 1806 959
85 16 239 37 410 55 106 11 527 -3 680 -23z"/>
<path d="M4165 7594 c-296 -17 -608 -80 -875 -177 -211 -76 -470 -206 -470
-235 0 -16 195 -359 680 -1197 431 -743 432 -745 452 -745 9 0 41 10 70 21 91
37 159 49 283 49 129 0 192 -12 296 -56 34 -14 65 -22 70 -17 20 21 882 1517
1047 1819 40 72 72 136 72 142 0 22 -345 177 -540 244 -94 32 -272 78 -395
102 -182 36 -517 60 -690 50z"/>
<path d="M4170 5045 c-105 -30 -190 -94 -252 -189 -153 -237 -72 -535 179
-654 68 -32 89 -37 169 -40 151 -7 246 30 348 138 82 86 119 170 124 282 4 73
0 101 -19 160 -41 130 -147 239 -278 289 -74 28 -198 34 -271 14z"/>
<path d="M1300 4556 c0 -71 29 -338 50 -464 129 -753 541 -1424 1159 -1890
114 -86 265 -182 285 -182 6 0 24 21 40 48 34 56 490 840 850 1460 l257 444
-23 18 c-161 127 -243 232 -293 380 -18 54 -45 187 -45 226 0 2 -513 4 -1140
4 l-1140 0 0 -44z"/>
<path d="M5025 4563 c-36 -226 -85 -333 -208 -457 -45 -46 -97 -94 -116 -108
l-34 -26 193 -333 c764 -1320 939 -1619 952 -1619 16 0 70 31 158 90 707 477
1177 1221 1299 2055 16 114 41 367 41 422 0 11 -211 13 -1140 13 l-1139 0 -6
-37z"/>
</g>
</svg>
