<svg xmlns="http://www.w3.org/2000/svg" width="612" height="610.725" viewBox="0 90.637 612 610.725">
  <path
    d="M600.524 313.762c0-1.275 0-1.275 0 0C563.549 184.988 446.248 90.637 305.997 90.637 137.699 90.637 0 228.338 0 396.636c0 70.125 24.226 135.149 63.749 186.149 1.275 3.825 3.826 7.65 7.65 8.926 35.698 43.35 84.149 75.226 137.699 94.35h1.275c30.601 10.2 62.474 15.301 95.626 15.301 168.3 0 306-137.699 306-305.999.001-28.051-3.825-56.102-11.475-81.601zM308.55 382.611c-7.65-6.374-48.45-45.897-68.851-110.924 44.626-10.2 202.725-38.251 336.6 51 6.374 22.949 10.198 48.45 10.198 72.676 0 24.227-2.549 47.175-8.924 68.853-105.826-105.83-238.424-87.979-269.023-81.605zM204 510.111c-28.05-36.975-126.227-179.772-67.574-334.05v-2.55c21.676-16.574 45.898-29.324 71.4-39.523-10.2 49.725-6.375 93.073 3.824 131.324v1.275s0 1.275 1.275 1.275c21.676 75.227 68.851 123.675 79.051 133.874-8.927 16.576-34.426 66.3-87.976 108.375zm359.549-224.398c-137.699-76.5-286.874-48.451-330.224-38.251-7.651-35.699-8.926-76.499 3.824-122.4 21.677-5.099 45.898-8.925 68.852-8.925 114.746-.001 214.197 70.124 257.548 169.576zm-462.824-79.051C65.026 357.11 153 487.161 183.599 525.409c-26.774 17.852-59.925 33.149-99.449 42.074-35.7-47.174-57.375-105.826-57.375-169.576-1.276-75.22 26.775-141.519 73.95-191.245zM102 587.886c149.176-40.801 205.273-158.101 215.475-181.05 20.398-3.825 80.324-11.477 146.625 12.75-15.299 38.251-86.699 201.448-248.623 240.976-44.628-14.026-82.876-39.525-113.477-72.676zm203.997 89.251c-15.301 0-29.322-1.276-44.624-3.826 145.35-56.099 210.374-202.725 225.675-242.249 28.05 14.025 56.099 33.149 82.874 62.475-39.522 107.1-142.8 183.6-263.925 183.6z"/>
</svg>
