<svg xmlns="http://www.w3.org/2000/svg" width="612" height="499.801" viewBox="0 146.1 612 499.801">
  <path
    d="M563.05 248.1h-86.945l-40.8-102h-258.61l-40.8 102H122.4v-51H61.2v51H48.949C21.925 248.123.023 270.025 0 297.05v299.555c.027 27.215 22.082 49.269 49.296 49.297h513.406c27.214-.028 49.27-22.082 49.298-49.297V297.05c-.023-27.025-21.927-48.927-48.95-48.95zM81.6 217.5H102v30.6H81.6v-30.6zm510 379.103c-.018 15.952-12.944 28.88-28.896 28.896H49.296c-15.952-.018-28.879-12.944-28.896-28.896V297.05c.022-15.758 12.792-28.526 28.551-28.55h100.756l40.8-102h230.988l40.801 102H563.05c15.758.022 28.526 12.792 28.55 28.55v299.553z"/>
  <path
    d="M306 237.9c-101.235 0-183.602 82.365-183.602 183.6C122.4 522.735 204.765 605.1 306 605.1c101.233 0 183.6-82.365 183.6-183.602C489.6 320.265 407.235 237.9 306 237.9zm0 346.8c-89.984 0-163.2-73.216-163.2-163.2 0-89.983 73.216-163.2 163.2-163.2 89.983 0 163.198 73.217 163.198 163.2 0 89.984-73.213 163.2-163.198 163.2z"/>
  <path
    d="M306 299.1c-67.494 0-122.4 54.905-122.4 122.399 0 67.493 54.906 122.399 122.4 122.399 67.492 0 122.398-54.906 122.398-122.399C428.4 354.007 373.492 299.1 306 299.1zm0 224.4c-56.243 0-102-45.757-102-102 0-56.242 45.757-102 102-102 56.241 0 102 45.758 102 102 0 56.243-45.759 102-102 102zm224.4-234.6c-22.501 0-40.8 18.299-40.8 40.8s18.299 40.8 40.8 40.8 40.8-18.299 40.8-40.8-18.299-40.8-40.8-40.8zm0 61.2c-11.251 0-20.398-9.149-20.398-20.4s9.147-20.4 20.398-20.4 20.4 9.149 20.4 20.4-9.149 20.4-20.4 20.4z"/>
</svg>
