<svg height="177" viewBox="37 38 95.6 95.7" width="176" xmlns="http://www.w3.org/2000/svg">
    <path fill="#fff"
          d="M36.2 87c0 26.4 21.4 47.8 47.8 47.8s47.8-21.4 47.8-47.8S110.4 39.2 84 39.2c-26.3 0-47.8 21.4-47.8 47.8zm39.2-.3c0-4.8 3.9-8.6 8.6-8.6 4.8 0 8.6 3.9 8.6 8.6 0 4.8-3.9 8.6-8.6 8.6-4.7.1-8.6-3.8-8.6-8.6zm-32.1-2.6c.8-12.4 7.2-24.2 18.2-31.5l12.4 21.5c-3.1 2.5-5.1 6.1-5.8 9.9H43.3v.1zm59 39.2c-11.7 5.9-25.1 5.5-36.2.1l12.4-21.6c3.6 1.3 7.6 1.3 11.3-.1l12.5 21.6zm17.2-57c3.3 5.6 5 11.7 5.4 17.8H100c-.3-1.9-.9-3.7-2-5.5-1-1.7-2.2-3.1-3.6-4.3l12.5-21.6c5 3.5 9.3 8 12.6 13.6z"/>
</svg>
