<svg height="24" viewBox="0 0 24 24" width="24" xmlns="http://www.w3.org/2000/svg" fill="#fff">
    <path d="M12.9 0H1.1C.5 0 0 .5 0 1.1v1.8C0 3.5.5 4 1.1 4h11.8c.6 0 1.1-.5 1.1-1.1V1.1c0-.6-.5-1.1-1.1-1.1zm.1 3H1V1h12v2zM12.9 10H1.1c-.6 0-1.1.5-1.1 1.1v1.8c0 .6.5 1.1 1.1 1.1h11.8c.6 0 1.1-.5 1.1-1.1v-1.8c0-.6-.5-1.1-1.1-1.1zm.1 3H1v-2h12v2zM12.9 20H1.1c-.6 0-1.1.5-1.1 1.1v1.8c0 .6.5 1.1 1.1 1.1h11.8c.6 0 1.1-.5 1.1-1.1v-1.8c0-.6-.5-1.1-1.1-1.1zm.1 3H1v-2h12v2zM12.9 5H1.1C.5 5 0 5.5 0 6.1v1.8C0 8.5.5 9 1.1 9h11.8c.6 0 1.1-.5 1.1-1.1V6.1c0-.6-.5-1.1-1.1-1.1zm.1 3H1V6h12v2zM12.9 15H1.1c-.6 0-1.1.5-1.1 1.1v1.8c0 .6.5 1.1 1.1 1.1h11.8c.6 0 1.1-.5 1.1-1.1v-1.8c0-.6-.5-1.1-1.1-1.1zm.1 3H1v-2h12v2zM20.7 6.3c-.4-.4-1.1-.4-1.5 0l-2.9 2.9c-.4.4-.4 1.1 0 1.5.4.4 1.1.4 1.5 0L20 8.5l2.2 2.2c.4.4 1.1.4 1.5 0 .4-.4.4-1.1 0-1.5l-3-2.9zM19.3 17.7c.4.4 1.1.4 1.5 0l2.9-2.9c.4-.4.4-1.1 0-1.5s-1.1-.4-1.5 0L20 15.5l-2.2-2.2c-.4-.4-1.1-.4-1.5 0-.4.4-.4 1.1 0 1.5l3 2.9z"/>
</svg>
