<svg height="32" viewBox="0 0 32 32" width="32" xmlns="http://www.w3.org/2000/svg" fill="#fff">
  <path
    d="M32 30v2H0V0h4v2H2v4h2v2H2v4h2v2H2v4h2v2H2v4h2v2H2v4h30zM9 26c1.656 0 3-1.344 3-3a2.97 2.97 0 0 0-.56-1.733l3.824-3.823c.49.348 1.087.559 1.734.559.816 0 1.555-.328 2.096-.858l3.301 2.399a2.966 2.966 0 0 0-.396 1.459 3.001 3.001 0 0 0 6 0 2.99 2.99 0 0 0-1.578-2.627l3.018-12.063 1.934.483L30 2.002l-3.467 3.584 1.936.482-2.996 11.979C25.32 18.024 25.162 18 25 18a2.97 2.97 0 0 0-1.979.763l-3.348-2.434c.201-.403.324-.85.324-1.329a3.001 3.001 0 0 0-6 0c0 .647.21 1.242.559 1.734l-3.824 3.823a2.977 2.977 0 0 0-1.733-.56A3 3 0 1 0 9 26z"/>
</svg>
