<svg xmlns="http://www.w3.org/2000/svg" height="319.5" width="302.4"><defs><clipPath id="a"><path d="M0 0h460v486H0z"/></clipPath></defs><g clip-path="url(#a)" transform="scale(.6573)"><path d="M0 0h460v486H0V0" fill="#fff"/><path d="M22 2v434M22 1l-4 4m4-4l4 4m-5 432h437m1 0l-4-4m4 4l-4 4m-433-4v3m33-3v2m33-2v3m33-3v2m33-2v3m34-3v2m33-2v3m33-3v2m33-2v3m34-3v2m33-2v3m33-3v2m33-2v3m33-3v2m67-2v2M22 403h-2m-1-33h3m0-33h-2m-1-33h3m0-34h-2m-1-33h3m0-33h-2m-1-33h3m0-34h-2m-1-33h3m0-33h-2m-1-33h3m0-33h-2" stroke-miterlimit="10" fill="none" stroke="#000"/><path d="M420.3 436.5c0-18.3-59.5-33.2-133-33.2-73.4 0-133 14.9-133 33.2 0 18.4 59.6 33.3 133 33.3 73.5 0 133-14.9 133-33.3z" stroke-miterlimit="10" fill="none" stroke="#000" stroke-width="3" stroke-linecap="round" stroke-linejoin="round" stroke-opacity=".7"/><path d="M21.5 137.8a100 100 0 0 0 31.6-5.1L21.5 37.8z" fill="#006400" fill-opacity=".1"/><path d="M21.5 137.8a100 100 0 0 0 31.6-5.1L21.5 37.8z" stroke-miterlimit="10" fill="none" stroke="#006400" stroke-width="3" stroke-linecap="round" stroke-linejoin="round" stroke-opacity=".7"/><path d="M53.1 132.7l-13.8 5.7-.6-9.4z" fill="#006400" fill-opacity=".7" fill-rule="evenodd"/><path d="M41.6 159l-2.1 8.6s4.8.3 6.6 3.8c0 0 .7 1.4.7 3 0 0 0 3.7-3.3 6.8 0 0-3.3 3.3-7.8 3.6H35l-1.4 5.7-.4 1.5-.4.2s-.5 0-.5-.4l.9-3.4.8-3.4v-.2s-4.3-.2-6.2-3.3c0 0-1-1.6-1-3.5 0 0 0-3.8 3.3-6.9 0 0 3.4-3.2 7.8-3.5h.5l2.2-8.8s.3-.7.6-.8c0 0 .4 0 .4.4v.5M34.2 184l4-15.6s-4.4.4-7 4.2c0 0-2 2.9-2 6.2 0 0 0 3.7 3.2 4.9 0 0 .9.3 1.8.3m5-15.6l-4 15.6s4.4-.3 7.1-4.3c0 0 1.9-2.8 1.9-6 0 0 0-3.6-3-4.9z" fill="#006400"/><path d="M50 188.5l1.5-6.1s.5-1.7.5-2.3c0 0 0-1.2-.9-1.2 0 0-1 0-1.8 2.5l-.1.7s-.3.6-.5.6c0 0-.3 0-.3-.3 0 0 0-.4.5-1.9l.3-.7s.6-1 1.2-1.3l.8-.2s1.5 0 2.2 1.3l.3 1s1.7-2.3 4.1-2.3c0 0 2.3 0 2.9 1.8l.2 1s0 1.4-1.7 6c0 0-.4 1.1-.4 1.8 0 0 0 .9.6.9 0 0 1.8 0 2.7-3.3 0 0 .1-.4.3-.5h.1s.3 0 .3.3c0 0 0 .4-.5 1.7 0 0-1.2 2.4-3 2.4 0 0-1.3 0-1.9-1.2 0 0-.2-.4-.2-1l.2-1.2s1.8-4.7 1.8-6.2c0 0 0-1.9-1.5-1.9 0 0-2.4 0-4 2.7l-.3.6-.4 1.3s0 .6-.4 1.8l-.6 2.4-.5 2s-.2.6-1 .7c0 0-.7-.2-.8-.7z" fill="#006400" fill-opacity=".7"/><path d="M21.5 117.8a80 80 0 0 0 56.6-23.4L21.5 37.8z" fill="#006400" fill-opacity=".1"/><path d="M21.5 117.8a80 80 0 0 0 56.6-23.4L21.5 37.8z" stroke-miterlimit="10" fill="none" stroke="#006400" stroke-width="3" stroke-linecap="round" stroke-linejoin="round" stroke-opacity=".7"/><path d="M78 94.4l-9.7 11.3-4.8-8.2z" fill="#006400" fill-opacity=".7" fill-rule="evenodd"/><path d="M83.6 140l-2.1 8.6s4.8.3 6.6 3.8c0 0 .7 1.4.7 3 0 0 0 3.7-3.3 6.8 0 0-3.3 3.3-7.8 3.6H77l-1.4 5.7-.4 1.5-.4.2s-.5 0-.5-.4l.9-3.4.8-3.4v-.2s-4.3-.2-6.2-3.3c0 0-1-1.6-1-3.5 0 0 0-3.8 3.3-6.9 0 0 3.4-3.2 7.8-3.5h.5l2.2-8.8s.3-.7.6-.8c0 0 .4 0 .4.4v.5M76.2 165l4-15.6s-4.4.4-7 4.2c0 0-2 2.9-2 6.2 0 0 0 3.7 3.2 4.9 0 0 .9.3 1.8.3m5-15.6l-4 15.6s4.4-.3 7.1-4.3c0 0 1.9-2.8 1.9-6 0 0 0-3.6-3-4.9z" fill="#006400"/><path d="M92 169.5l1.5-6.1s.5-1.7.5-2.3c0 0 0-1.2-.9-1.2 0 0-1 0-1.8 2.5l-.1.7s-.3.6-.5.6c0 0-.3 0-.3-.3 0 0 0-.4.5-1.9l.3-.7s.6-1 1.2-1.3l.8-.2s1.5 0 2.2 1.3l.3 1s1.7-2.3 4.1-2.3c0 0 2.3 0 2.9 1.8l.2 1s0 1.4-1.7 6c0 0-.4 1.1-.4 1.8 0 0 0 .9.6.9 0 0 1.8 0 2.7-3.3 0 0 .1-.4.3-.5h.1s.3 0 .3.3c0 0 0 .4-.5 1.7 0 0-1.2 2.4-3 2.4 0 0-1.3 0-1.9-1.2 0 0-.2-.4-.2-1l.2-1.2s1.8-4.7 1.8-6.2c0 0 0-1.9-1.5-1.9 0 0-2.4 0-4 2.7l-.3.6-.4 1.3s0 .6-.4 1.8l-.6 2.4-.5 2s-.2.6-1 .7c0 0-.7-.2-.8-.7zm24.5-4.5v7.4s0 .9-.5.9c0 0-.6 0-.6-.9V165H108s-.9 0-.9-.6c0 0 0-.5.9-.5h7.4v-7.4s0-.9.6-1c0 0 .5 0 .5 1v7.4h7.4s.9 0 .9.5c0 0 0 .6-.9.6zm17.6-11v15s0 .8.3 1c0 0 .5.3 2.2.3h.8v.8h-8.6v-.8h.9s2 0 2.3-.5l.1-.8v-13.8s-1.3.7-3.4.7v-.8s3.2 0 4.8-1.7c0 0 .5 0 .6.2v.5z" fill="#006400" fill-opacity=".7"/><path d="M21.5 37.8l133 398.7M21.5 37.8l398.7 398.7m-132.9 0H171.4" stroke-miterlimit="10" fill="none" stroke="#000" stroke-width="3" stroke-linecap="round" stroke-linejoin="round" stroke-opacity=".7"/><path d="M154.4 436.5l17-4.2v8.5z" fill-opacity=".7" fill-rule="evenodd"/><path d="M221.5 428.6l1.7-6.6.4-2.4s0-1.3-.9-1.3c0 0-1.1 0-1.9 2.7l-.1.7-.5.6s-.4 0-.4-.2c0 0 0-.5.5-2l.4-.8s.7-1.4 1.7-1.6h.4s1.6 0 2.3 1.3a3 3 0 0 0 .3.9s1.7-2 3.7-2.2c0 0 1.6 0 2.1 1l.2.8s0 1.1-1 1.6l-.5.1s-1 0-1.1-.8v-.2s0-1 1-1.4l.5-.2-.6-.2-.6-.1s-1.2 0-2.3 1c0 0-.9.7-1.5 2l-.1.3-1 3.7-1 4.5s-.3.7-1.1.8c0 0-.7-.2-.8-.8z"/><path d="M154.4 436.5h116" stroke-miterlimit="10" fill="none" stroke="#000" stroke-width="3" stroke-linecap="round" stroke-linejoin="round" stroke-opacity=".7"/><path d="M287.3 436.5l-17 4.3v-8.5z" fill-opacity=".7" fill-rule="evenodd"/><path d="M26.5 37.8a5 5 0 1 1-10 0 5 5 0 0 1 10 0z" fill="#00f"/><path d="M26.5 37.8a5 5 0 1 1-10 0 5 5 0 0 1 10 0z" stroke-miterlimit="10" fill="none" stroke="#000" stroke-linecap="round" stroke-linejoin="round"/><path d="M39.8 33.6L53 11.4s.4-.6 1-.6c0 0 .6 0 .7.3v.6l2.4 23.7s0 1 .4 1.2c0 0 .5.2 2 .2 0 0 .9 0 .9.4 0 0 0 .8-.7.8l-4.2-.1h-4.8s-.6 0-.6-.4c0 0 .3-.7 1-.7 0 0 2.7 0 2.7-1.3l-.6-6.3h-9.6L40.8 34s-.6.9-.6 1.4c0 0 0 1.1 1.8 1.3 0 0 .6 0 .6.4 0 0 0 .8-.7.8l-3.7-.1H35s-.6 0-.6-.4c0 0 0-.6.6-.7h.2s2.4-.2 4-2l.7-1.2m4.6-5.6H53l-1.3-12.5zm114.9 408.6a5 5 0 1 1-10 0 5 5 0 0 1 10 0z" fill="#00f"/><path d="M159.4 436.5a5 5 0 1 1-10 0 5 5 0 0 1 10 0z" stroke-miterlimit="10" fill="none" stroke="#000" stroke-linecap="round" stroke-linejoin="round"/><path d="M129 471l5.1-20.4.2-.7s0-.5-.6-.6h-.3l-1.6-.1s-1 0-1-.3v-.2s0-.6.6-.7h13.2s5 0 7.4 3.9c0 0 1.6 2.4 1.6 5.7 0 0 0 5.5-3.9 10.3 0 0-3.6 4.5-8.6 5.7 0 0-1.5.4-3 .4h-12.5s-1 0-1-.3v-.2s0-.6.5-.7h.5s2.5 0 3-.5l.4-1.1v-.2m8.2-20.4l-5.2 20.9-.1.9s0 .3.3.4h5.3s4.7 0 8.1-3.5l.7-.8s3-4 3.8-10.3l.1-2s0-5-4-6.5c0 0-1.2-.5-2.8-.5h-4.1s-1.4 0-1.7.4zm288-14.1a5 5 0 1 1-10 0 5 5 0 0 1 10 0z" fill="#00f"/><path d="M425.2 436.5a5 5 0 1 1-10 0 5 5 0 0 1 10 0z" stroke-miterlimit="10" fill="none" stroke="#000" stroke-linecap="round" stroke-linejoin="round"/><path d="M450.9 448.6l-2.4 9.6s-.2.7-.4.8h-.3s-.6 0-.6-.4l.1-1.8v-.1s0-4.7-3-6.5c0 0-1.3-.8-3-.8 0 0-4.1 0-7.7 3 0 0-1 .7-1.6 1.6 0 0-3.7 4.2-4.5 10.7l-.1 2s0 5.3 4 7.2c0 0 1.5.7 3.4.7 0 0 3.6 0 7-2.7 0 0 2.7-2.3 3.8-6 0 0 .1-.4.5-.4 0 0 .5 0 .5.3 0 0 0 .7-.9 2.5 0 0-1.2 2.4-3.3 4.2 0 0-3.8 3.3-8.2 3.3 0 0-4.9 0-7.8-3.3 0 0-2.5-2.9-2.5-7.1 0 0 0-5.7 4.1-10.6 0 0 3.9-4.6 9.1-6 0 0 2-.6 3.8-.6 0 0 4.2 0 6.3 3.4l2.7-3s.4-.4.6-.4c0 0 .4 0 .4.4zM26.5 436.5a5 5 0 1 1-10 0 5 5 0 0 1 10 0z" fill="#00f"/><path d="M26.5 436.5a5 5 0 1 1-10 0 5 5 0 0 1 10 0z" stroke-miterlimit="10" fill="none" stroke="#000" stroke-linecap="round" stroke-linejoin="round"/><path d="M13 471l5.2-20.4.1-.7s0-.5-.6-.6h-.4l-1.4-.1s-1 0-1.1-.4c0 0 0-.7.6-.8h13.3s4.3 0 6.2 2.6c0 0 .8 1.2.8 2.7 0 0 0 3-3.4 5.3 0 0-2 1.3-4.5 1.8 0 0 3.9.5 5.3 3 0 0 .6 1.1.6 2.4 0 0 0 2.7-2.7 5.2 0 0-3.3 3-7.8 3H9.6s-1 0-1-.5c0 0 0-.6.6-.7h.4s2.5 0 3-.5l.4-1.1v-.2m5.8-11h5.6s3.7 0 6.2-2.7c0 0 1.7-2 1.7-4.2 0 0 0-2.8-2.3-3.6 0 0-.8-.3-1.9-.3h-4.9s-1.3 0-1.6.4l-.4 1-2.4 9.5m-1.7 12.7h5.2s3.6 0 6-2.7c0 0 1.8-2.2 1.8-4.8 0 0 0-2.7-2-3.9 0 0-1-.5-2.3-.5h-7.2L16 471.5l-.2.9s0 .3.3.4z" fill="#00f"/><path d="M292.3 436.5a5 5 0 1 1-10 0 5 5 0 0 1 10 0z" fill="#7d7dff"/><path d="M292.3 436.5a5 5 0 1 1-10 0 5 5 0 0 1 10 0z" stroke-miterlimit="10" fill="none" stroke="#000" stroke-linecap="round" stroke-linejoin="round"/><path d="M21.5 436.5V54.8" stroke-miterlimit="10" fill="none" stroke="#000" stroke-width="3" stroke-linecap="round" stroke-linejoin="round" stroke-opacity=".7"/><path d="M21.5 37.8l4.3 17h-8.5z" fill-opacity=".7" fill-rule="evenodd"/><path d="M38 238.4l-3 12.1s2.3-3 5.6-3c0 0 3.3 0 4.1 2.7 0 0 .2.7.2 1.5 0 0 0 2-2.3 8.3 0 0-.7 1.7-.7 2.7 0 0 0 1.3 1 1.3 0 0 2.3 0 3.7-4.2l.1-.5s.2-.6.4-.7h.2s.4 0 .4.4c0 0 0 .6-.8 2.3 0 0-1.6 3.5-4.1 3.5 0 0-2 0-2.8-1.6 0 0-.3-.7-.3-1.5 0 0 0-.7.4-2.1 0 0 2.4-6 2.4-8.5 0 0 0-2.7-2-2.7 0 0-1.9 0-3.7 1.4 0 0-1.4 1-2.5 3.2v.3l-.5 1.7-.6 2.5-.9 3.4-.7 3s-.3.7-1.2.9h-.2s-1 0-1-.8l-.1-.3.1-.8 5.6-21.9v-.7s0-.5-.5-.6H33s-.9 0-1-.5c0 0 0-.7.8-.8l4.6-.4s.5 0 .5.4z"/><path d="M21.5 37.8v381.7" stroke-miterlimit="10" fill="none" stroke="#000" stroke-width="3" stroke-linecap="round" stroke-linejoin="round" stroke-opacity=".7"/><path d="M21.5 436.5l-4.2-17h8.5z" fill-opacity=".7" fill-rule="evenodd"/></g></svg>