<svg xmlns="http://www.w3.org/2000/svg" height="318.2" width="302.4"><defs><clipPath id="a"><path d="M0 0h612v792H0z"/></clipPath><clipPath id="b"><path d="M0 0h6120v7920H0z"/></clipPath><clipPath id="c"><path d="M0 2620h2489.5V-.3H0z"/></clipPath></defs><g clip-path="url(#a)" transform="matrix(1.21455 0 0 -1.21455 0 318.2)"><g clip-path="url(#b)" transform="scale(.1)"><g clip-path="url(#c)"><path d="M0 2620h2489.5V-.3H0V2620" fill="#fff"/><path d="M332.6 2609.5V224.6m0 2390.2l-21-21m21 21l21-21M329.5 223h2149.6m5.2 0l-21 20.8m21-20.8l-21-21M332.6 223v-15.8M474.3 223v-10.5M616 223v-15.8M757.8 223v-10.5M899.5 223v-15.8m141.8 15.8v-10.5M1183 223v-15.8m141.7 15.8v-10.5m141.8 10.5v-15.8m141.7 15.8v-10.5M1750 223v-15.8m141.7 15.8v-10.5m141.7 10.5v-15.8m141.7 15.8v-10.5m141.7 10.5v-15.8m141.8 15.8v-10.5m-2126 152.2H322m-5 141.7h15.6m0 141.7H322m-5 141.7h15.6m0 141.8H322m-5 141.7h15.6m0 141.7H322m-5 141.8h15.6m0 141.7H322m-5 141.7h15.6m0 141.8H322m-5 141.7h15.6m0 141.7H322m-5 141.8h15.6m0 141.7H322m-5 141.7h15.6" stroke-miterlimit="10" fill="none" stroke="#000" stroke-width="10"/><path d="M1745 2490.6c0 39.2-124.8 70.9-278.5 70.9-153.8 0-278.5-31.7-278.5-70.9 0-39.1 124.7-70.8 278.4-70.8 153.8 0 278.5 31.7 278.5 70.8zm0-2267.6c0 39-124.8 70.8-278.5 70.8-153.8 0-278.5-31.7-278.5-70.9 0-39.1 124.7-70.8 278.4-70.8 153.8 0 278.5 31.7 278.5 70.8z" stroke-miterlimit="10" fill="none" stroke="#4d4d4d" stroke-width="25" stroke-linecap="round" stroke-linejoin="round"/><path d="M1750 506.4a283.5 283.5 0 1 0-567 0 283.5 283.5 0 0 0 567 0zm0 1700.8a283.5 283.5 0 1 0-567 0 283.5 283.5 0 0 0 567 0z" stroke-miterlimit="10" fill="none" stroke="#4d4d4d" stroke-width="25" stroke-linecap="round" stroke-linejoin="round"/><path d="M332.6 1302.9c90.3 0 178.7 25.4 255.2 73.3L332.6 1784" fill="#e6f0e6"/><path d="M332.6 1302.9c90.3 0 178.7 25.4 255.2 73.3L332.6 1784z" stroke-miterlimit="10" fill="none" stroke="#4d934d" stroke-width="25" stroke-linecap="round" stroke-linejoin="round"/><path d="M587.8 1376.2l-63-46.1-15.1 47" fill="#4d934d"/><path d="M478.4 1283l-9.3-35c14 0 23.3-4.6 28-14 1.5-4.6 2.3-8.5 2.3-11.6 0-9.3-4.7-18.6-14-28a50.2 50.2 0 0 0-30.3-14h-2.3l-4.7-20.9-2.3-7h-2.3v2.4l2.3 11.6 2.3 14c-10.9 1.5-18.6 6.2-23.3 14-3 3-4.6 7.7-4.6 14 0 9.2 4.6 17.8 14 25.5 7.7 9.4 17.8 14 30.2 14h2.3l7 35 2.4 2.3h2.3v-2.4zm-28-97.9l14 60.6a43.7 43.7 0 0 1-28-16.3c-4.6-7.8-7-16.3-7-25.6s4.7-15.6 14-18.7zm18.7 60.6l-16.3-60.6c12.4 0 21.7 5.5 28 16.3a37.3 37.3 0 0 1 9.2 23.3c0 9.3-3.8 15.5-11.6 18.7a20.7 20.7 0 0 1-9.3 2.3m80.2-52.7c0-9.7-1.1-17.3-3.3-22.8-4.3-7.6-10.3-11.4-18-11.4-6.4 0-11.3 2.2-14.6 6.5l-3.3 3.3a48.5 48.5 0 0 0-4.8 24.4c0 11 1.6 19 4.8 24.5a20 20 0 0 0 16.3 13h1.7a16 16 0 0 0 14.7-8.1c1-1 2.1-2.7 3.2-4.9a69.5 69.5 0 0 0 3.3-24.5zm-21.2-32.6c4.3 0 7.6 2.2 9.8 6.6a97.2 97.2 0 0 1 3.3 27.7c0 9.8-.6 16.8-1.7 21.2-1 6.5-3.8 10.3-8.2 11.4h-3.2c-5.5 0-9.3-2.2-11.4-6.5a14 14 0 0 0-1.7-6.5v-19.6a95 95 0 0 1 1.7-21.2c1-6.5 3.8-10.9 8.1-13h3.3" fill="#006400"/><path d="M332.6 1391.8A392 392 0 0 1 638 1537.9l-305.4 246.2" fill="#e6f0e6"/><path d="M332.6 1391.8A392 392 0 0 1 638 1537.9l-305.4 246.2z" stroke-miterlimit="10" fill="none" stroke="#4d934d" stroke-width="25" stroke-linecap="round" stroke-linejoin="round"/><path d="M638 1538l-44.5-64.3-29.6 39.6" fill="#4d934d"/><path d="M713.8 1434.6l-9.4-35c14 0 23.3-4.6 28-13.9 1.5-4.6 2.3-8.5 2.3-11.6 0-9.3-4.6-18.7-14-28a50.1 50.1 0 0 0-30.2-14H688l-4.6-21-2.4-6.9h-2.3v2.3l2.3 11.7 2.4 14c-10.9 1.5-18.7 6.2-23.3 14-3.1 3-4.7 7.7-4.7 13.9 0 9.3 4.7 17.9 14 25.6 7.8 9.3 17.9 14 30.3 14h2.3l7 35 2.3 2.3h2.4v-2.4zm-28-97.8l14 60.6a43.7 43.7 0 0 1-28-16.3c-4.6-7.8-7-16.3-7-25.7 0-9.3 4.7-15.5 14-18.6zm18.6 60.6l-16.3-60.6c12.5 0 21.8 5.4 28 16.3a37.3 37.3 0 0 1 9.3 23.3c0 9.3-3.9 15.5-11.6 18.6a20.7 20.7 0 0 1-9.4 2.4m63.9-18.4v-58.7c0-2.2.6-3.3 1.7-3.3 1-1 3.8-1.6 8.1-1.6h3.3v-3.3H747v3.3h3.3c5.4 0 8.7.5 9.8 1.6v57.1a41.8 41.8 0 0 0-13-1.7v3.3c7.5 0 13.5 2.2 17.9 6.5 2.1 0 3.2-.5 3.2-1.6v-1.6" fill="#006400"/><path d="M623 1980a350.4 350.4 0 0 1-290.4 154.5V1784" fill="#e6f0e6"/><path d="M623 1980a350.4 350.4 0 0 1-290.4 154.5V1784z" stroke-miterlimit="10" fill="none" stroke="#4d934d" stroke-width="25" stroke-linecap="round" stroke-linejoin="round"/><path d="M623 1980l-38.9 67.8-32.8-37" fill="#4d934d"/><path d="M551.6 2261l-9.3-35c14 0 23.3-4.6 28-14 1.5-4.6 2.3-8.5 2.3-11.6 0-9.3-4.7-18.6-14-28a50.2 50.2 0 0 0-30.3-13.9H526l-4.7-21-2.3-7h-2.3v2.4l2.3 11.6 2.3 14c-10.8 1.6-18.6 6.2-23.3 14-3 3-4.6 7.8-4.6 14 0 9.3 4.6 17.8 14 25.6 7.7 9.3 17.8 14 30.2 14h2.4l7 34.9 2.3 2.3h2.3zm-28-97.8l14 60.5a43.7 43.7 0 0 1-28-16.3 49.1 49.1 0 0 1-6.9-25.6c0-9.3 4.7-15.5 14-18.6h7zm18.7 60.5l-16.3-60.5c12.4 0 21.7 5.4 28 16.3a37.3 37.3 0 0 1 9.3 23.3c0 9.3-4 15.5-11.7 18.6a20.6 20.6 0 0 1-9.3 2.3M585 2145l4.9 24.5c1 4.3 1.6 7 1.6 8.1 0 3.3-1 4.9-3.2 4.9s-4.4-3.3-6.6-9.8v-3.2l-1.6-1.7h-1.6c0 1.1.5 3.8 1.6 8.2l1.6 3.2c1.1 2.2 2.8 3.8 5 5h3.2c3.2 0 6-1.7 8.1-5v-3.2c5.5 5.4 11 8.1 16.3 8.1 6.6 0 10.4-2.1 11.5-6.5 1-1 1.6-2.7 1.6-4.9 0-3.2-2.2-10.9-6.5-22.8a14.7 14.7 0 0 1-1.7-6.5c0-2.2.6-3.3 1.7-3.3 5.4 0 9.2 4.4 11.4 13v1.7h1.6c1.1 0 1.6-.6 1.6-1.7 0-1-1-3.2-3.2-6.5-3.3-6.5-7-9.8-11.4-9.8-3.3 0-6 1.7-8.2 5v4.8c0 1.1.6 2.2 1.6 3.3a115 115 0 0 1 6.6 24.4c0 5.5-2.2 8.2-6.6 8.2-6.5 0-11.4-3.8-14.6-11.4-1.1 0-1.7-.6-1.7-1.6l-1.6-5c0-2.1-.5-4.3-1.6-6.5l-3.3-9.7-1.6-8.2c0-2.2-1.1-3.3-3.3-3.3-2.1 1.1-3.2 2.2-3.2 3.3l1.6 4.9" fill="#006400"/><path d="M592.2 1815.6a261.5 261.5 0 0 1-259.6 230V1784" fill="#e6f0e6"/><path d="M592.2 1815.6a261.5 261.5 0 0 1-259.6 230V1784z" stroke-miterlimit="10" fill="none" stroke="#4d934d" stroke-width="25" stroke-linecap="round" stroke-linejoin="round"/><path d="M592.2 1815.6l-3.8 78-46-17.9" fill="#4d934d"/><path d="M692.8 1989l-9.3-35c14 0 23.3-4.6 28-13.9 1.5-4.7 2.3-8.5 2.3-11.6 0-9.4-4.7-18.7-14-28a50.2 50.2 0 0 0-30.3-14h-2.3l-4.6-21-2.4-7H658v2.4l2.3 11.7 2.4 14c-11 1.5-18.7 6.1-23.3 14-3.1 3-4.7 7.7-4.7 13.9 0 9.3 4.7 17.8 14 25.6 7.7 9.3 17.8 14 30.3 14h2.3l7 35 2.3 2.2h2.3v-2.3zm-28-97.8l14 60.6a43.7 43.7 0 0 1-27.9-16.3c-4.7-7.8-7-16.3-7-25.7 0-9.3 4.7-15.5 14-18.6h7zm18.7 60.6l-16.3-60.6c12.4 0 21.7 5.4 28 16.3a37.3 37.3 0 0 1 9.3 23.3c0 9.3-4 15.5-11.7 18.6a20.7 20.7 0 0 1-9.3 2.4m42.7-78.8l4.9 24.5c1 4.3 1.6 7 1.6 8.1 0 3.3-1 5-3.2 5s-4.4-3.3-6.6-9.8v-3.3l-1.6-1.6h-1.6c0 1 .5 3.8 1.6 8.1l1.6 3.3c1.1 2.2 2.8 3.8 5 4.9h3.2c3.3 0 6-1.7 8.2-5v-3.2c5.4 5.5 10.8 8.2 16.3 8.2 6.5 0 10.3-2.2 11.4-6.6 1-1 1.6-2.7 1.6-4.8 0-3.3-2.2-11-6.5-22.9a14 14 0 0 1-1.7-6.5c0-2.2.6-3.3 1.7-3.3 5.4 0 9.2 4.4 11.4 13v1.7h1.6c1.1 0 1.6-.5 1.6-1.6s-1-3.3-3.2-6.5c-3.3-6.6-7-9.8-11.4-9.8-3.3 0-6 1.6-8.2 4.9v4.9c0 1 .6 2.1 1.7 3.2a115 115 0 0 1 6.5 24.5c0 5.4-2.2 8.1-6.5 8.1-6.6 0-11.5-3.8-14.7-11.4-1.1 0-1.6-.5-1.6-1.6l-1.7-4.9c0-2.2-.5-4.3-1.6-6.5l-3.3-9.8-1.6-8.2c0-2.1-1-3.2-3.3-3.2-2.1 1-3.2 2.2-3.2 3.2l1.6 5m95.2 17.9v-29.4c0-2.1-.5-3.2-1.6-3.2-1 0-1.6 1-1.6 3.2v29.4h-29.4c-2.1 0-3.2.5-3.2 1.6 0 1 1 1.6 3.2 1.6h29.4v29.4c0 2.2.5 3.2 1.6 3.2s1.6-1 1.6-3.2v-29.4h29.4c2.2 0 3.3-.5 3.3-1.6 0-1-1.1-1.6-3.3-1.6h-29.4m69.8 42.4v-58.7c0-2.2.5-3.3 1.6-3.3 1.1-1 3.8-1.6 8.2-1.6h3.2v-3.3H870v3.3h3.3c5.4 0 8.6.5 9.7 1.6v57.1a41.3 41.3 0 0 0-13-1.7v3.3c7.6 0 13.6 2.2 18 6.5 2.1 0 3.2-.5 3.2-1.6v-1.6" fill="#006400"/><path d="M1183 223v2267.6M1750 223v2267.6" stroke-miterlimit="10" fill="none" stroke="#4d4d4d" stroke-width="25" stroke-linecap="round" stroke-linejoin="round"/><path d="M332.6 2490.6h2157" stroke-miterlimit="10" fill="none" stroke="#4d4d4d" stroke-width="25" stroke-linejoin="round" stroke-dasharray="25,30"/><path d="M332.6 1784l2157 261.8M332.6 1784L2270 223M332.6 1784l976.8-1561M332.6 1784l1047.2 706.6M1466.5 223v2178.7" stroke-miterlimit="10" fill="none" stroke="#4d4d4d" stroke-width="25" stroke-linecap="round" stroke-linejoin="round"/><path d="M1466.5 2490.6l22.2-88.9h-44.5" fill="#4d4d4d"/><path d="M1558.7 1363.7l-11.7-48.9c6.2 7.8 14 11.7 23.3 11.7s14.8-3.1 16.3-9.3v-7c0-4.7-3.1-15.6-9.3-32.6a20.7 20.7 0 0 1-2.3-9.3c0-3.2 1.5-4.7 4.6-4.7 6.2 0 10.9 5.4 14 16.3v2.3l2.3 2.3c1.6 0 2.3-.7 2.3-2.3 0-1.5-.7-4.6-2.3-9.3-4.6-9.3-10-14-16.3-14-6.2 0-10 2.4-11.6 7-1.6 1.6-2.4 3.9-2.4 7 0 1.6.8 3.9 2.4 7 6.2 15.5 9.3 26.4 9.3 32.6 0 7.8-2.3 11.6-7 11.6a25 25 0 0 1-14-4.6 35.1 35.1 0 0 1-11.6-14c0-3.1-.8-5.4-2.3-7 0-3-.8-6.2-2.4-9.3l-2.3-14-2.3-11.6-4.7-4.7h-2.3c-1.6 0-2.3 1.6-2.3 4.7v2.3l21 86.2v4.7s-.9.7-2.4 2.3h-7c0 3 .8 4.6 2.3 4.6h18.7m84.7-85.7c-1.1 3.3-3.8 5-8.2 5-4.3 0-8.7-2.3-13-6.6-1.1-1-1.6-2.7-1.6-4.9a38.7 38.7 0 0 1-6.6-18v-1.6c0-6.5 2.2-10.3 6.5-11.4h3.3a22 22 0 0 1 16.3 6.5c2.2 1.1 3.8 2.2 4.9 3.3 0 1.1.6 1.6 1.6 1.6l1.7-1.6c0-1-1.7-2.7-5-4.9a26.6 26.6 0 0 0-19.5-8.1 16 16 0 0 0-14.7 8.1c-1 3.3-1.6 6.5-1.6 9.8 0 7.6 2.7 14.1 8.2 19.6 5.4 6.5 11.4 9.7 17.9 9.7h1.6c5.5 0 9.3-1.6 11.4-4.8v-3.3c0-3.3-1-5.4-3.2-6.5h-1.6c-2.2 0-3.9.5-5 1.6v1.6c0 1.1 1.1 2.2 3.3 3.3 0 1 1.1 1.6 3.3 1.6"/><path d="M1466.5 2490.6V311.8" stroke-miterlimit="10" fill="none" stroke="#4d4d4d" stroke-width="25" stroke-linecap="round" stroke-linejoin="round"/><path d="M1466.5 223l-22.3 88.8h44.5" fill="#4d4d4d"/><path d="M332.6 1784V311.9" stroke-miterlimit="10" fill="none" stroke="#4d4d4d" stroke-width="25" stroke-linecap="round" stroke-linejoin="round"/><path d="M332.6 223l-22.2 88.8h44.4" fill="#4d4d4d"/><path d="M204 1076l-11.6-48.8c6.2 7.7 14 11.6 23.3 11.6s14.8-3 16.3-9.3v-7c0-4.7-3.1-15.5-9.3-32.6a20.7 20.7 0 0 1-2.3-9.3c0-3.1 1.5-4.7 4.6-4.7 6.2 0 10.9 5.5 14 16.3v2.4l2.3 2.3c1.6 0 2.3-.8 2.3-2.3a38 38 0 0 0-2.3-9.4c-4.6-9.3-10-14-16.3-14-6.2 0-10 2.4-11.6 7-1.6 1.6-2.4 4-2.4 7 0 1.6.8 4 2.4 7 6.2 15.6 9.3 26.4 9.3 32.6 0 7.8-2.3 11.7-7 11.7a25 25 0 0 1-14-4.7 35.2 35.2 0 0 1-11.6-14c0-3-.8-5.4-2.3-7 0-3-.8-6.1-2.4-9.2l-2.3-14-2.3-11.7-4.7-4.6h-2.3c-1.6 0-2.4 1.5-2.4 4.6v2.4l21 86.1v4.7l-2.3 2.3h-7c0 3.1.8 4.7 2.3 4.7h18.7m71.6-53.1l-16.3-60.3v-5c0-3.2 1.1-4.8 3.3-4.8 2.2 0 4.3 2.7 6.5 8.1 0 1.1.6 2.7 1.6 5 0 1 .6 1.5 1.7 1.5V966c0-1-.6-3.2-1.7-6.5 0-1-.5-2.2-1.6-3.3-1-4.3-3.3-6.5-6.5-6.5-4.4 0-7 1.6-8.2 4.9-1 1-1.6 2.7-1.6 4.9v3.3l13 52.1v3.3l-1.6 1.6h-4.9c0 2.2.6 3.3 1.7 3.3h14.6"/><path d="M332.6 223v1472.2" stroke-miterlimit="10" fill="none" stroke="#4d4d4d" stroke-width="25" stroke-linecap="round" stroke-linejoin="round"/><path d="M332.6 1784l22.2-88.9h-44.4" fill="#4d4d4d"/><path d="M332.6 1784v617.7" stroke-miterlimit="10" fill="none" stroke="#4d4d4d" stroke-width="25" stroke-linecap="round" stroke-linejoin="round"/><path d="M332.6 2490.6l22.2-88.9h-44.4" fill="#4d4d4d"/><path d="M332.6 2490.6V1873" stroke-miterlimit="10" fill="none" stroke="#4d4d4d" stroke-width="25" stroke-linecap="round" stroke-linejoin="round"/><path d="M332.6 1784l-22.2 89h44.4" fill="#4d4d4d"/><path d="M178 2211l-11.7-48.9c6.2 7.8 14 11.7 23.3 11.7s14.7-3.2 16.3-9.4v-7c0-4.6-3.2-15.5-9.4-32.6a20.7 20.7 0 0 1-2.3-9.3c0-3 1.6-4.6 4.7-4.6 6.2 0 10.8 5.4 14 16.3v2.3l2.3 2.3c1.5 0 2.3-.8 2.3-2.3a39 39 0 0 0-2.3-9.3c-4.7-9.3-10.1-14-16.3-14-6.2 0-10.1 2.3-11.7 7-1.5 1.5-2.3 3.9-2.3 7 0 1.5.8 3.9 2.3 7 6.2 15.5 9.3 26.4 9.3 32.6 0 7.7-2.3 11.6-7 11.6a25 25 0 0 1-14-4.6 35 35 0 0 1-11.6-14c0-3.1-.7-5.4-2.3-7 0-3.1-.8-6.2-2.3-9.3l-2.4-14-2.3-11.6-4.6-4.7h-2.4c-1.5 0-2.3 1.6-2.3 4.7v2.3l21 86.2v4.6l-2.4 2.4h-7c0 3 .8 4.6 2.4 4.6h18.6m79.8-118.3c-3.2-5.4-7-8.2-11.4-8.2-5.4 0-9.2 2.2-11.4 6.6-1 2.1-1.6 4.3-1.6 6.5 0 3.2 1.6 10.3 4.9 21.2h1.6c1 3.2 1.6 6 1.6 8.1 0 2.2-1 3.3-3.2 3.3-3.3 0-6.6-3.3-9.8-9.8v-3.2l-1.6-1.7H225c0 2.2.6 4.4 1.7 6.5 3.2 6.6 7 9.8 11.4 9.8 4.3 0 7-1.6 8.1-4.9 1.1-1 1.6-2.1 1.6-3.2s-1-3.3-3.2-6.5a77.7 77.7 0 0 1-4.9-21.2c0-5.5 2.2-8.2 6.5-8.2 4.4 0 8.2 2.2 11.4 6.5v1.7a331 331 0 0 1 8.2 31c1 3.2 2.7 4.8 4.9 4.8 1-1 1.6-2.1 1.6-3.2l-1.6-6.5c0-4.4-.6-7.1-1.7-8.2l-1.6-11.4a45.2 45.2 0 0 1-3.2-9.8c0-3.3 1-4.9 3.2-4.9 3.3 0 6 3.3 8.2 9.8v3.3l1.6 1.6c1 0 1.6-.6 1.6-1.6a26 26 0 0 0-1.6-6.6c-1-1-1.6-2.1-1.6-3.2-2.2-4.4-5-6.5-8.2-6.5-4.3 0-7 1.6-8.1 4.8 0 1.1-.6 2.2-1.7 3.3"/><path d="M1466.5 506.4H1661" stroke-miterlimit="10" fill="none" stroke="#4d4d4d" stroke-width="25" stroke-linecap="round" stroke-linejoin="round"/><path d="M1750 506.4l-89-22.2v44.4" fill="#4d4d4d"/><path d="M1750 506.4h-194.6" stroke-miterlimit="10" fill="none" stroke="#4d4d4d" stroke-width="25" stroke-linecap="round" stroke-linejoin="round"/><path d="M1466.5 506.4l88.9 22.2v-44.4" fill="#4d4d4d"/><path d="M1588.2 389.4l7 35a67 67 0 0 1 2.4 11.6c0 4.6-1.6 7-4.7 7s-6.2-4.7-9.3-14v-4.7l-2.3-2.3h-2.4c0 1.6.8 5.4 2.3 11.7 0 1.5.8 3 2.4 4.6 1.5 4.7 4.6 7 9.3 7h2.3c4.7 0 8.6-2.3 11.7-7v-4.6c6.2 7.7 13.2 11.6 21 11.6 4.6 0 7.7-1.5 9.2-4.7 1.6-1.5 2.4-3 2.4-4.6 0-3.1-1.6-5.4-4.7-7-1.5-1.6-3-2.3-4.6-2.3-3.1 0-4.7 1.5-4.7 4.6v2.4c0 3 1.6 5.4 4.7 7h2.3l-2.3 2.3h-2.4a25 25 0 0 1-14-4.7c-3-3-5.4-7-7-11.6l-4.6-21-7-23.3c0-3-1.5-4.6-4.6-4.6-3.1 1.5-4.7 3-4.7 4.6l2.3 7"/><path d="M358.7 1784a26.2 26.2 0 1 0-52.3 0 26.2 26.2 0 0 0 52.3 0" fill="#00f"/><path d="M358.7 1784a26.2 26.2 0 1 0-52.3 0 26.2 26.2 0 0 0 52.3 0z" stroke-miterlimit="10" fill="none" stroke="#000" stroke-width="10" stroke-linecap="round" stroke-linejoin="round"/><path d="M151.1 1702.9l53.6 88.5c0 1.5.8 2.3 2.3 2.3 1.6 0 2.4-.8 2.4-2.3 1.5 0 2.3-.8 2.3-2.4l9.3-93.1v-4.7h9.3c1.6 0 2.4-.8 2.4-2.3 0-1.6-.8-2.4-2.4-2.4h-34.9c-1.6 0-2.3.8-2.3 2.4 0 1.5.7 2.3 2.3 2.3 7.8 0 11.6 1.6 11.6 4.7l-2.3 25.6h-37.3l-11.6-18.6a17.9 17.9 0 0 1-2.3-7c0-3.1 2.3-4.7 7-4.7 1.5 0 2.3-.8 2.3-2.3 0-1.6-.8-2.4-2.3-2.4h-28c-1.5 0-2.3.8-2.3 2.4 0 1.5.8 2.3 2.3 2.3h2.3c6.3 0 11 2.3 14 7a6.4 6.4 0 0 1 2.3 4.7zm18.7 23.2h35l-4.7 49zM1492.6 223a26.2 26.2 0 1 0-52.3 0 26.2 26.2 0 0 0 52.3 0" fill="#00f"/><path d="M1492.6 223a26.2 26.2 0 1 0-52.3 0 26.2 26.2 0 0 0 52.3 0z" stroke-miterlimit="10" fill="none" stroke="#000" stroke-width="10" stroke-linecap="round" stroke-linejoin="round"/><path d="M1492.6 2490.6a26.2 26.2 0 1 0-52.3 0 26.2 26.2 0 0 0 52.3 0" fill="#4d4dff"/><path d="M1492.6 2490.6a26.2 26.2 0 1 0-52.3 0 26.2 26.2 0 0 0 52.3 0z" stroke-miterlimit="10" fill="none" stroke="#000" stroke-width="10" stroke-linecap="round" stroke-linejoin="round"/><path d="M1492.6 506.4a26.2 26.2 0 1 0-52.3 0 26.2 26.2 0 0 0 52.3 0" fill="#00f"/><path d="M1492.6 506.4a26.2 26.2 0 1 0-52.3 0 26.2 26.2 0 0 0 52.3 0z" stroke-miterlimit="10" fill="none" stroke="#000" stroke-width="10" stroke-linecap="round" stroke-linejoin="round"/><path d="M1776 506.4a26.2 26.2 0 1 0-52.2 0 26.2 26.2 0 0 0 52.3 0" fill="#00f"/><path d="M1776 506.4a26.2 26.2 0 1 0-52.2 0 26.2 26.2 0 0 0 52.3 0z" stroke-miterlimit="10" fill="none" stroke="#000" stroke-width="10" stroke-linecap="round" stroke-linejoin="round"/></g></g></g></svg>