<svg xmlns="http://www.w3.org/2000/svg" height="339.7" width="302.4"><defs><clipPath id="a"><path d="M0 0h599v673H0z"/></clipPath></defs><g clip-path="url(#a)" transform="scale(.50478)"><path d="M0 0h599v673H0V0" fill="#fff"/><path d="M7 2v614M7 1L4 4m3-3l3 3M6 616h591m1 0l-3-3m3 3l-3 3M7 616v3m56-3v3m29-3v2m28-2v3m29-3v2m28-2v3m28-3v2m29-2v3m28-3v2m29-2v3m28-3v2m28-2v3m29-3v2m28-2v3m28-3v2m29-2v3m28-3v2m29-2v3m28-3v2m28-2v3m29-3v2m57-2v2M7 588H5m-1-28h3m0-29H5m-1-28h3m0-29H5m-1-28h3m0-28H5m-1-29h3m0-28H5m-1-29h3m0-28H5m-1-28h3m0-29H5m-1-28h3m0-28H5m-1-29h3m0-28H5m-1-29h3m0-28H5M4 49h3m0-29H5" stroke-miterlimit="10" fill="none" stroke="#000"/><path d="M574.4 446a170.3 170.3 0 1 1-340.7 0 170.3 170.3 0 0 1 340.7 0z" stroke-miterlimit="10" fill="none" stroke="#000" stroke-width="3" stroke-linecap="round" stroke-linejoin="round"/><path d="M6.6 148.6c16 0 31.8-3.9 46-11.2l-46-88.8z" fill="#006400" fill-opacity=".1"/><path d="M6.6 148.6c16 0 31.8-3.9 46-11.2l-46-88.8z" stroke-miterlimit="10" fill="none" stroke="#006400" stroke-linecap="round" stroke-linejoin="round"/><path d="M52.6 137.4l-11 6.7-1.8-8z" fill="#006400" fill-rule="evenodd"/><path d="M39.7 158.1L37 168.3s5.8.4 7.9 4.6c0 0 .8 1.7.8 3.6 0 0 0 4.3-3.8 8 0 0-4 3.8-9.4 4.2H32l-1.7 6.8-.5 1.8-.4.2s-.6 0-.6-.5l1-4 1-4v-.2s-5.1-.3-7.4-4c0 0-1.2-1.8-1.2-4.2 0 0 0-4.4 4-8 0 0 4-3.9 9.2-4.2h.6l2.6-10.5s.4-.8.7-.9c0 0 .5 0 .5.5l-.1.6M31 187.8l4.6-18.5s-5.2.5-8.3 5c0 0-2.3 3.4-2.3 7.3 0 0 0 4.4 3.8 5.8 0 0 1 .4 2.2.4m5.8-18.5l-4.7 18.5s5.3-.4 8.4-5c0 0 2.3-3.5 2.3-7.3 0 0 0-4.2-3.6-5.7 0 0-1-.4-2.4-.5zm12.8 23.8l1.8-7.2s.5-2 .5-2.7c0 0 0-1.4-1-1.4 0 0-1.3 0-2 3l-.3.7s-.3.7-.5.7c0 0-.4 0-.4-.3 0 0 0-.5.7-2.2v-.1l.3-.7s.7-1.3 1.4-1.6c0 0 .4-.2 1-.2 0 0 1.7 0 2.5 1.5 0 0 .3.5.3 1.2 0 0 2-2.7 5-2.7 0 0 2.7 0 3.4 2 0 0 .2.6.2 1.3 0 0 0 1.7-2 7 0 0-.5 1.4-.5 2.2 0 0 0 1 .7 1 0 0 2.1 0 3.2-3.9 0 0 .2-.5.4-.5h.1s.4 0 .4.3c0 0 0 .5-.7 2 0 0-1.3 2.8-3.4 2.8 0 0-1.6 0-2.3-1.3 0 0-.3-.6-.3-1.2 0 0 0-.7.3-1.5 0 0 2-5.5 2-7.3 0 0 0-2.2-1.6-2.2 0 0-2.9 0-4.8 3.1l-.4.7-.4 1.6-.5 2.1-.7 2.8-.6 2.4s-.3.8-1.2.8c0 0-.8-.1-.9-.8z" fill="#006400"/><path d="M252.8 524.3l4.9 9.5 9.4-5-4.9-9.3-9.4 4.8" fill="#006400" fill-opacity=".1" fill-rule="evenodd"/><path d="M252.8 524.3l4.9 9.5 9.4-5-4.9-9.3-9.4 4.8" stroke-miterlimit="10" fill="none" stroke="#006400" stroke-linecap="round" stroke-linejoin="round"/><path d="M404.1 616.4v-10.6h-10.6v10.6H404" fill="#006400" fill-opacity=".1" fill-rule="evenodd"/><path d="M404.1 616.4v-10.6h-10.6v10.6H404" stroke-miterlimit="10" fill="none" stroke="#006400" stroke-linecap="round" stroke-linejoin="round"/><path d="M350.8 473.6a60 60 0 0 0 22.1 23.7l31.2-51.3z" fill="#006400" fill-opacity=".1"/><path d="M350.8 473.6a60 60 0 0 0 22.1 23.7l31.2-51.3zm9.6 9l-4.6 3.8m8.8.8l-4.1 4.3" stroke-miterlimit="10" fill="none" stroke="#006400" stroke-linecap="round" stroke-linejoin="round"/><path d="M373 497.3a60 60 0 0 0 31 8.7v-60z" fill="#006400" fill-opacity=".1"/><path d="M373 497.3a60 60 0 0 0 31 8.7v-60zm12.7 2.7l-1.9 5.7m7.9-4l-1.3 5.8" stroke-miterlimit="10" fill="none" stroke="#006400" stroke-linecap="round" stroke-linejoin="round"/><path d="M345.4 616.4a45 45 0 0 0-21.6-38.4l-23.4 38.4z" fill="#006400" fill-opacity=".1"/><path d="M345.4 616.4a45 45 0 0 0-21.6-38.4l-23.4 38.4zm-8.4-20.6l5.3-3" stroke-miterlimit="10" fill="none" stroke="#006400" stroke-linecap="round" stroke-linejoin="round"/><path d="M323.8 578a45 45 0 0 0-44-1.6l20.6 40z" fill="#006400" fill-opacity=".1"/><path d="M323.8 578a45 45 0 0 0-44-1.6l20.6 40zm-21.9-3.6l.2-6" stroke-miterlimit="10" fill="none" stroke="#006400" stroke-linecap="round" stroke-linejoin="round"/><path d="M252.8 524.3L404.1 446m0 0v170.4" stroke-miterlimit="10" fill="none" stroke="#000" stroke-linecap="round" stroke-linejoin="round"/><path d="M417 536.7l2.6-10.4s.7-2.9.7-3.8c0 0 0-2-1.4-2 0 0-1.9 0-3 4.2l-.3 1.1s-.5 1-.8 1c0 0-.5 0-.5-.4 0 0 0-.7.8-3l.6-1.4s1-2.2 2.7-2.5h.6s2.5 0 3.7 2.1a4.8 4.8 0 0 0 .4 1.3s2.6-3.2 5.8-3.4c0 0 2.5 0 3.4 1.7 0 0 .3.6.3 1.2 0 0 0 1.8-1.5 2.4 0 0-.5.3-1 .3 0 0-1.4 0-1.6-1.3v-.3s0-1.5 1.5-2.2l.8-.3-1-.4-1-.1s-1.8 0-3.5 1.5c0 0-1.4 1.2-2.4 3.3l-.1.3-1.5 5.9-1.8 7.1s-.4 1.2-1.6 1.3c0 0-1.2-.3-1.3-1.2z"/><path d="M404.1 446L300.4 616.4" stroke-miterlimit="10" fill="none" stroke="#000" stroke-linejoin="round" stroke-dasharray="5,4"/><path d="M300.4 616.4h103.7m-55.3-4.5v9m3.5-9v9m3.5-9v9" stroke-miterlimit="10" fill="none" stroke="#000" stroke-linecap="round" stroke-linejoin="round"/><path d="M365.2 627.5l-6.5 26-.2 2.2s0 2 1.3 2c0 0 1.7 0 2.9-3.5l.5-2s.4-.8.7-.8c0 0 .5 0 .5.4 0 0 0 .7-.8 3.2l-.5 1.3s-1.3 2.4-3.4 2.4c0 0-2.5 0-3.6-2.1l-.5-1.2s-2.8 3.3-5.8 3.3c0 0-3.4 0-5-3 0 0-1-1.8-1-4.2 0 0 0-4.8 3.4-9 0 0 3.1-3.7 6.8-4.1h.6s2.8 0 4.2 2.8l2.7-10.6.1-1s0-.4-.6-.6h-1.6s-1 0-1.1-.6c0 0 0-.8.6-.9 0 0 4.3-.5 5.7-.5 0 0 .6 0 .6.5M356 653l2.2-8.8.1-.8s0-1-.8-2.3c0 0-1-1.7-2.7-1.7 0 0-2.4 0-4.5 3.1l-.7 1.3s-1.3 2.6-2.2 7.4c0 0-.3 1.5-.3 2.4 0 0 0 3 1.7 4 0 0 .5.3 1.2.3 0 0 2.5 0 5-3.2 0 0 .7-.8 1-1.5zm12.2 10.1l1.8-7.2s.5-2 .5-2.7c0 0 0-1.4-1-1.4 0 0-1.2 0-2 3l-.3.7s-.3.7-.5.7c0 0-.4 0-.4-.3 0 0 0-.5.6-2l.4-1s.8-1.6 1.9-1.8h.4s1.8 0 2.6 1.5a3.4 3.4 0 0 0 .3.9s1.8-2.3 4-2.4c0 0 1.8 0 2.4 1.2 0 0 .3.4.3.8 0 0 0 1.3-1 1.7l-.8.2s-1 0-1.1-.9v-.2s0-1 1-1.6l.6-.2-.7-.2-.7-.1s-1.3 0-2.5 1c0 0-1 .9-1.6 2.3l-.1.3-1 4-1.3 5s-.3.9-1.2 1c0 0-.8-.2-.9-.9z"/><path d="M407.1 616.4a3 3 0 1 1-6 0 3 3 0 0 1 6 0z" fill="#444"/><path d="M407.1 616.4a3 3 0 1 1-6 0 3 3 0 0 1 6 0z" stroke-miterlimit="10" fill="none" stroke="#000" stroke-linecap="round" stroke-linejoin="round"/><path d="M279.8 576.4a45 45 0 0 0-24.4 40h45z" fill="#006400" fill-opacity=".1"/><path d="M279.8 576.4a45 45 0 0 0-24.4 40h45z" stroke-miterlimit="10" fill="none" stroke="#006400" stroke-linecap="round" stroke-linejoin="round"/><path d="M6.6 128.6a80 80 0 0 0 71-43.3l-71-36.7z" fill="#006400" fill-opacity=".1"/><path d="M6.6 128.6a80 80 0 0 0 71-43.3l-71-36.7z" stroke-miterlimit="10" fill="none" stroke="#006400" stroke-linecap="round" stroke-linejoin="round"/><path d="M77.7 85.3l-5 11.8-6.1-5.4z" fill="#006400" fill-rule="evenodd"/><path d="M109.7 129.1l-2.6 10.2s5.8.4 7.9 4.6c0 0 .8 1.7.8 3.6 0 0 0 4.3-3.8 8 0 0-4 3.8-9.4 4.2h-.6l-1.7 6.8-.5 1.8-.4.2s-.6 0-.6-.5l1-4 1-4v-.2s-5.1-.3-7.4-4c0 0-1.2-1.8-1.2-4.2 0 0 0-4.4 4-8 0 0 4-3.9 9.2-4.2h.6l2.6-10.5s.4-.8.7-.9c0 0 .5 0 .5.5l-.1.6m-8.6 29.7l4.6-18.5s-5.2.5-8.3 5c0 0-2.3 3.4-2.3 7.3 0 0 0 4.4 3.8 5.8 0 0 1 .4 2.2.4m5.8-18.5l-4.7 18.5s5.3-.4 8.4-5c0 0 2.3-3.5 2.3-7.3 0 0 0-4.2-3.6-5.7 0 0-1-.4-2.4-.5zm12.7 23.8l1.8-7.2s.5-2 .5-2.7c0 0 0-1.4-1-1.4 0 0-1.3 0-2 3l-.3.7s-.3.7-.5.7c0 0-.4 0-.4-.3 0 0 0-.5.7-2.2v-.1l.3-.7s.7-1.3 1.4-1.6c0 0 .4-.2 1-.2 0 0 1.7 0 2.5 1.5 0 0 .3.5.3 1.2 0 0 2-2.7 5-2.7 0 0 2.7 0 3.4 2 0 0 .2.6.2 1.3 0 0 0 1.7-2 7 0 0-.5 1.4-.5 2.2 0 0 0 1 .7 1 0 0 2.1 0 3.2-3.9 0 0 .2-.5.4-.5h.1s.4 0 .4.3c0 0 0 .5-.7 2 0 0-1.3 2.8-3.4 2.8 0 0-1.6 0-2.3-1.3 0 0-.3-.6-.3-1.2 0 0 0-.7.3-1.5 0 0 2-5.5 2-7.3 0 0 0-2.2-1.6-2.2 0 0-2.9 0-4.8 3.1l-.4.7-.4 1.6-.5 2.1-.7 2.8-.6 2.4s-.3.8-1.2.8c0 0-.8-.1-.9-.8zm29-5.3v8.8s0 1-.6 1c0 0-.7 0-.7-1v-8.8h-8.8s-1 0-1-.7c0 0 0-.6 1-.6h8.8v-8.8s0-1 .7-1c0 0 .6 0 .6 1v8.8h8.8s1 0 1 .6c0 0 0 .7-1 .7zm20.9-13v17.7s0 1 .4 1.2c0 0 .5.3 2.5.3h1v1h-10.2v-1h1s2.4 0 2.8-.5c0 0 .2-.3.2-1v-16.3s-1.7.8-4.2.8v-1s3.8 0 5.8-2c0 0 .6 0 .6.2v.6z" fill="#006400"/><path d="M252.8 524.3l9.4-4.8-4.9-9.5-9.4 5 4.9 9.3" fill="#006400" fill-opacity=".1" fill-rule="evenodd"/><path d="M252.8 524.3l9.4-4.8-4.9-9.5-9.4 5 4.9 9.3" stroke-miterlimit="10" fill="none" stroke="#006400" stroke-linecap="round" stroke-linejoin="round"/><path d="M6.6 48.6l597.4 309" stroke-miterlimit="10" fill="none" stroke="#000" stroke-linecap="round" stroke-linejoin="round"/><path d="M6.6 446H599" stroke-miterlimit="10" fill="none" stroke="#000" stroke-linejoin="round" stroke-dasharray="1,3"/><path d="M6.6 48.6l246.2 475.7" stroke-miterlimit="10" fill="none" stroke="#000" stroke-linecap="round" stroke-linejoin="round"/><path d="M138.2 333.5l-6.5 26-.2 2.2s0 2 1.3 2c0 0 1.7 0 2.9-3.5l.5-2s.4-.8.7-.8c0 0 .5 0 .5.4 0 0 0 .7-.8 3.2l-.5 1.3s-1.3 2.4-3.4 2.4c0 0-2.5 0-3.6-2.1l-.5-1.2s-2.8 3.3-5.8 3.3c0 0-3.4 0-5-3 0 0-1-1.8-1-4.2 0 0 0-4.8 3.4-9 0 0 3.1-3.7 6.8-4l.6-.1s2.8 0 4.2 2.8l2.7-10.6.1-1s0-.4-.6-.6h-1.6s-1 0-1.1-.6c0 0 0-.8.6-.9 0 0 4.3-.5 5.7-.5 0 0 .6 0 .6.5M129 359l2.2-8.8.1-.8s0-1-.8-2.3c0 0-1-1.6-2.7-1.6 0 0-2.3 0-4.5 3l-.7 1.3s-1.3 2.6-2.2 7.4c0 0-.3 1.5-.3 2.4 0 0 0 3 1.7 4 0 0 .5.3 1.2.3 0 0 2.5 0 5-3.2 0 0 .7-.8 1-1.5zm24.3.1l-3.5 14s-.5 1.9-2.5 3.2c0 0-1.8 1.2-4.2 1.2 0 0-3.9 0-4.2-1.6v-.4s0-1.3 1.2-1.7h.5s1 0 1.2.8v.2s0 1-1 1.5l-.3.1s1 .4 2.5.4c0 0 3.1 0 4.6-3.4l1-4.2s-1.5 1.5-3.2 1.8h-.5s-2.2 0-3.4-2c0 0-.8-1.2-.8-3 0 0 0-3.3 2.4-6.2 0 0 2.2-2.5 4.8-2.7h.3s1.7 0 2.8 1.6l.1.4s.3-1.2 1.3-1.4c0 0 .9 0 1 .9l-.1.5m-4.1 7.9l1.5-6v-.5s0-.7-.5-1.5c0 0-.3-.7-1-1 0 0-.4-.2-1-.2 0 0-1.6 0-3 2l-.5.8s-1 1.9-1.6 5.2l-.1 1.6s0 2 1.2 2.7c0 0 .3.2.8.2 0 0 1.2 0 2.6-1.1 0 0 1.3-1.2 1.6-2.2z"/><path d="M252.8 524.3l47.6 92M279 565.2l-8 4.1m9.6-1l-8 4.1m9.6-1l-8 4.1" stroke-miterlimit="10" fill="none" stroke="#000" stroke-linecap="round" stroke-linejoin="round"/><path d="M6.6 48.6L394.2 436" stroke-miterlimit="10" fill="none" stroke="#000" stroke-linejoin="round" stroke-dasharray="9,8"/><path d="M404.1 446l-12.4-7.4 5-5z" fill-rule="evenodd"/><path d="M241.2 222.5l-6.5 26-.2 2.2s0 2 1.3 2c0 0 1.7 0 2.9-3.5l.5-2s.4-.8.7-.8c0 0 .5 0 .5.4 0 0 0 .7-.8 3.2l-.5 1.3s-1.3 2.4-3.4 2.4c0 0-2.5 0-3.6-2.1l-.5-1.2s-2.8 3.3-5.8 3.3c0 0-3.4 0-5-3 0 0-1-1.8-1-4.2 0 0 0-4.8 3.4-9 0 0 3.1-3.7 6.8-4l.6-.1s2.8 0 4.2 2.8l2.7-10.6.1-1s0-.4-.6-.6h-1.6s-1 0-1.1-.6c0 0 0-.8.6-.9 0 0 4.2-.5 5.7-.5 0 0 .6 0 .6.5M232 248l2.2-8.8.1-.8s0-1-.8-2.3c0 0-1-1.6-2.7-1.6 0 0-2.4 0-4.5 3l-.7 1.3s-1.3 2.6-2.2 7.4c0 0-.3 1.5-.3 2.4 0 0 0 3 1.7 4 0 0 .5.3 1.2.3 0 0 2.5 0 5-3.2 0 0 .7-.8 1-1.5zm21.9 0s-.9-1.1-2.7-1.2c0 0-2 0-3.7 2l-.8 1.1s-1.2 2.3-1.6 5.4v1s0 2.5 1.7 3.2c0 0 .4.2 1 .2 0 0 3 0 5.2-2l1.2-1.2s.2-.3.4-.3c0 0 .3 0 .4.4 0 0 0 .4-1.1 1.4 0 0-2.6 2.3-6 2.3 0 0-3 0-4.4-2.3 0 0-.8-1.3-.8-3 0 0 0-3.2 2.5-6 0 0 2.4-2.6 5.4-2.9h.6s2.4 0 3.3 1.5c0 0 .4.5.4 1.2 0 0 0 1.4-1.1 1.9l-.7.1s-1 0-1.1-.8v-.3s0-.7.5-1.2c0 0 .5-.5 1.4-.5z"/><path d="M6.6 616.4h279.8" stroke-miterlimit="10" fill="none" stroke="#000" stroke-linecap="round" stroke-linejoin="round"/><path d="M300.4 616.4l-14 3.5v-7z" fill-rule="evenodd"/><path d="M152.2 622.5l-6.5 26-.2 2.2s0 2 1.3 2c0 0 1.7 0 2.9-3.5l.5-2s.4-.8.7-.8c0 0 .5 0 .5.4 0 0 0 .7-.8 3.2l-.5 1.3s-1.3 2.4-3.4 2.4c0 0-2.5 0-3.6-2.1l-.5-1.2s-2.8 3.3-5.8 3.3c0 0-3.4 0-5-3 0 0-1-1.8-1-4.2 0 0 0-4.8 3.4-9 0 0 3.1-3.7 6.8-4l.6-.1s2.8 0 4.2 2.8l2.7-10.6.1-1s0-.4-.6-.6h-1.6s-1 0-1.1-.6c0 0 0-.8.6-.9 0 0 4.2-.5 5.7-.5 0 0 .6 0 .6.5M143 648l2.2-8.8.1-.8s0-1-.8-2.3c0 0-1-1.6-2.7-1.6 0 0-2.4 0-4.5 3l-.7 1.3s-1.3 2.6-2.2 7.4c0 0-.3 1.5-.3 2.4 0 0 0 3 1.7 4 0 0 .5.3 1.2.3 0 0 2.5 0 5-3.2 0 0 .7-.8 1-1.5zm23.2-9.1l-1.8 7.1s4 .3 5.5 3.3c0 0 .6 1.1.6 2.4 0 0 0 3-2.7 5.7 0 0-2.8 2.7-6.5 3h-.5l-1.2 4.7-.3 1.2s-.1.2-.3.2c0 0-.4 0-.4-.4l.7-2.8.7-2.8v-.1s-3.6-.2-5.2-2.8c0 0-.8-1.3-.8-3 0 0 0-3 2.7-5.6 0 0 2.8-2.7 6.5-3h.4l1.8-7.2s.3-.6.5-.7c0 0 .4 0 .4.4l-.1.4m-6 20.8l3.2-13s-3.6.4-5.8 3.6c0 0-1.6 2.3-1.6 5 0 0 0 3.1 2.7 4.1 0 0 .7.3 1.5.3m4-13l-3.2 13s3.6-.3 5.8-3.6c0 0 1.6-2.3 1.6-5 0 0 0-3-2.4-4 0 0-.8-.3-1.8-.4z"/><path d="M6.6 616.4V460" stroke-miterlimit="10" fill="none" stroke="#000" stroke-linecap="round" stroke-linejoin="round"/><path d="M6.6 446l3.5 14h-7z" fill-rule="evenodd"/><path d="M24 540.7l2.6-10.4s.7-2.9.7-3.8c0 0 0-2-1.4-2 0 0-1.9 0-3 4.3l-.3 1s-.5 1-.8 1c0 0-.5 0-.5-.4 0 0 0-.7.8-3l.6-1.3s1-2.3 2.7-2.6h.6s2.5 0 3.7 2.1a4.8 4.8 0 0 0 .4 1.4s2.6-3.3 5.8-3.5c0 0 2.5 0 3.4 1.7 0 0 .3.6.3 1.2 0 0 0 1.8-1.5 2.4 0 0-.5.3-1 .3 0 0-1.4 0-1.6-1.3v-.3s0-1.5 1.5-2.2l.8-.3-1-.4-1-.1s-1.8 0-3.5 1.5c0 0-1.4 1.2-2.4 3.3l-.1.4-1.5 5.8-1.8 7.1s-.4 1.2-1.6 1.3c0 0-1.2-.3-1.3-1.2z"/><path d="M6.6 446V62.6" stroke-miterlimit="10" fill="none" stroke="#000" stroke-linecap="round" stroke-linejoin="round"/><path d="M6.6 48.6l3.5 14h-7z" fill-rule="evenodd"/><path d="M26 284.5l-3.6 14.3s2.8-3.4 6.7-3.4c0 0 4 0 5 3v.1l.1 1.7s0 2.5-2.7 9.9c0 0-.8 2-.8 3.2 0 0 0 1.5 1 1.5 0 0 2.9 0 4.5-5l.2-.6s.2-.7.4-.8h.2s.6 0 .6.4c0 0 0 .8-1 2.9 0 0-2 4-5 4 0 0-2.2 0-3.2-1.9 0 0-.4-.8-.4-1.7 0 0 0-.9.6-2.5 0 0 2.8-7.1 2.8-10.1 0 0 0-3.1-2.5-3.1 0 0-2.1 0-4.3 1.5 0 0-1.7 1.3-3 3.9v.3l-.5 2-.8 3-1 4-.9 3.5s-.3 1-1.3 1.1h-.3s-1.1 0-1.3-.9v-.3l.2-1 6.5-26 .1-.8s0-.5-.6-.7H20s-1 0-1.1-.6c0 0 0-.8.8-1l5.5-.4s.6 0 .6.5zm52.7 20.4H54s-1.4 0-1.4-.9c0 0 0-.9 1.4-.9h24.6s1.4 0 1.5.9c0 0 0 .9-1.5.9zm19.2 7.7l2.6-10.4s.7-2.9.7-3.8c0 0 0-2-1.4-2 0 0-1.8 0-3 4.2l-.3 1.1s-.5 1-.7 1c0 0-.6 0-.6-.4 0 0 0-.7.8-3l.6-1.4s1.1-2.2 2.7-2.5h.7s2.5 0 3.6 2.1a4.8 4.8 0 0 0 .5 1.3s2.6-3.2 5.7-3.4c0 0 2.5 0 3.4 1.7 0 0 .3.6.3 1.2 0 0 0 1.7-1.4 2.4l-1 .2s-1.4 0-1.7-1.2v-.3s0-1.5 1.5-2.2l.8-.3-.9-.4-1-.1s-1.9 0-3.6 1.4c0 0-1.4 1.3-2.4 3.4l-.1.3-1.4 5.9-1.8 7s-.5 1.3-1.7 1.3c0 0-1.1-.2-1.3-1.2z"/><path d="M6.6 48.6V432" stroke-miterlimit="10" fill="none" stroke="#000" stroke-linecap="round" stroke-linejoin="round"/><path d="M6.6 446l-3.5-14h7z" fill-rule="evenodd"/><path d="M6.6 446v156.4" stroke-miterlimit="10" fill="none" stroke="#000" stroke-linecap="round" stroke-linejoin="round"/><path d="M6.6 616.4l-3.5-14h7z" fill-rule="evenodd"/><path d="M300.4 616.4H20.6" stroke-miterlimit="10" fill="none" stroke="#000" stroke-linecap="round" stroke-linejoin="round"/><path d="M6.6 616.4l14-3.5v7z" fill-rule="evenodd"/><path d="M12.6 616.4a6 6 0 1 1-12 0 6 6 0 0 1 12 0z" fill="#00f"/><path d="M12.6 616.4a6 6 0 1 1-12 0 6 6 0 0 1 12 0z" stroke-miterlimit="10" fill="none" stroke="#000" stroke-linecap="round" stroke-linejoin="round"/><path d="M13.2 657.2l6-24.1.2-.9s0-.5-.7-.7h-2.2s-1.2 0-1.3-.6c0 0 0-.8.7-.9h15.7s5.2 0 7.4 3c0 0 1 1.5 1 3.2 0 0 0 3.7-4 6.4h-.1s-2.4 1.5-5.3 2c0 0 4.6.6 6.3 3.7 0 0 .7 1.2.7 2.7 0 0 0 3.3-3.2 6.2 0 0-3.9 3.5-9.2 3.5H9s-1.1 0-1.2-.4c0 0 0-.9.7-1H9s3 0 3.5-.6c0 0 .3-.3.6-1.2v-.3m6.8-13h6.6s4.4 0 7.3-3.2c0 0 2-2.3 2-5 0 0 0-3.2-2.7-4.2 0 0-1-.4-2.2-.4h-5.8s-1.6 0-2 .5l-.4 1.2-2.8 11.2m-2 15h6s4.4 0 7.2-3.2c0 0 2.2-2.5 2.2-5.6 0 0 0-3.3-2.3-4.6 0 0-1.2-.6-2.9-.6h-8.5l-3 12.5-.3 1s0 .4.4.5H18zM409.1 446a5 5 0 1 1-10 0 5 5 0 0 1 10 0z" fill="#00f"/><path d="M409.1 446a5 5 0 1 1-10 0 5 5 0 0 1 10 0z" stroke-miterlimit="10" fill="none" stroke="#000" stroke-linecap="round" stroke-linejoin="round"/><path d="M448.4 403.1l-25.2 28.1h7.7s6.1 0 8.8-3.1c0 0 1.6-2 3-6.2 0 0 .4-1 .8-1.2 0 0 .6 0 .6.5l-.2.7-3.2 10s-.2.7-.6.8h-20.4s-1 0-1-.4v-.8l25.2-28h-7.3s-6.1 0-8.7 3.3l-.1.1s-1.3 1.7-2.3 4.8c0 0-.2.4-.5.4 0 0-.6 0-.6-.5l.1-.6 2.5-8s.2-.8.6-1h19.8s1 0 1.1.4zM11.6 48.6a5 5 0 1 1-10 0 5 5 0 0 1 10 0z" fill="#00f"/><path d="M11.6 48.6a5 5 0 1 1-10 0 5 5 0 0 1 10 0z" stroke-miterlimit="10" fill="none" stroke="#000" stroke-linecap="round" stroke-linejoin="round"/><path d="M31 43.6l15.7-26.3s.5-.7 1.2-.8c0 0 .7 0 .7.5l.1.6 2.8 28.1s.1 1.2.5 1.4c0 0 .6.3 2.4.3 0 0 1 0 1 .5 0 0 0 .9-.8.9l-5-.2-5.6.1s-.7 0-.7-.4c0 0 .4-.9 1-1 0 0 3.3 0 3.3-1.4l-.7-7.5H35.6L32.2 44s-.7 1.1-.7 1.7c0 0 0 1.4 2.2 1.6 0 0 .7 0 .7.5 0 0 0 .8-.9.8h-8.3s-.6 0-.6-.4c0 0 0-.9.6-.9h.3s2.9-.2 4.7-2.5l.9-1.3m5.4-6.6h10.3L45.3 22zm221.3 487.4a5 5 0 1 1-10 0 5 5 0 0 1 10 0z" fill="#00f"/><path d="M257.8 524.3a5 5 0 1 1-10 0 5 5 0 0 1 10 0z" stroke-miterlimit="10" fill="none" stroke="#000" stroke-linecap="round" stroke-linejoin="round"/><path d="M207.2 551.2l6-24.1.2-.9s0-.5-.8-.7h-2.2s-1.1 0-1.2-.5v-.1s0-.8.7-.9h15.7s5.9 0 8.7 4.6c0 0 1.9 2.8 1.9 6.8 0 0 0 6.5-4.6 12.2 0 0-4.3 5.3-10.1 6.7 0 0-1.8.4-3.5.4h-15s-1 0-1.2-.3v-.2s0-.8.7-.8h.6s2.9 0 3.5-.7l.5-1.2v-.3m9.8-24l-6.2 24.6-.2 1s0 .4.4.5h6.2s5.6 0 9.7-4.1l.7-1s3.6-4.6 4.6-12.2l.2-2.3s0-6-4.8-7.7c0 0-1.5-.6-3.4-.6h-4.8s-1.6 0-2 .5l-.4 1.2zm88.5 89.2a5 5 0 1 1-10 0 5 5 0 0 1 10 0z" fill="#00f"/><path d="M305.4 616.4a5 5 0 1 1-10 0 5 5 0 0 1 10 0z" stroke-miterlimit="10" fill="none" stroke="#000" stroke-linecap="round" stroke-linejoin="round"/><path d="M309.2 631.5l-2.8 11.4s-.3.9-.5.9h-.3s-.7 0-.7-.4l.1-2.2v-.1s0-5.6-3.5-7.7c0 0-1.6-1-3.7-1 0 0-4.8 0-9.2 3.7 0 0-1.2 1-2 2.1 0 0-4.4 5.3-5.2 13v1.7s0 6.2 4.6 8.5c0 0 2 1 4.4 1 0 0 3.8 0 6.3-2 0 0 1.8-1.3 2.4-3.5 0 0 1-3.5 1-4.1 0 0 0-.6-.8-.8h-.7l-2.4-.1s-1.2 0-1.3-.3v-.2s0-1 1-1l6.2.2 4.7-.1s.6 0 .6.5c0 0 0 .9-.7.9 0 0-2 0-2.5.4l-.6 1.7-.4 1.8-.2.5-.8 3.5-.8 2.7s0 .2-.3.2c0 0-.5 0-1.5-1.7l-.5-1s-1.6 1.6-3.5 2.5l-.4.2s-2.7 1-5.7 1c0 0-6 0-9.5-4.2 0 0-2.8-3.3-2.8-8 0 0 0-6.8 5-12.6 0 0 4.5-5.5 10.7-7.2 0 0 2.3-.7 4.5-.7 0 0 5 0 7.5 4l3.1-3.4.7-.6s.5 0 .5.5zM11.6 446a5 5 0 1 1-10 0 5 5 0 0 1 10 0z" fill="#00f"/><path d="M11.6 446a5 5 0 1 1-10 0 5 5 0 0 1 10 0z" stroke-miterlimit="10" fill="none" stroke="#000" stroke-linecap="round" stroke-linejoin="round"/><path d="M46.9 424.3l-4.2 9.7s-.3.6-.6.7H18s-1.2 0-1.2-.3v-.2s0-.8.6-.8h.6s2.9 0 3.5-.7l.5-1.2v-.3l6-23.8.2-1s0-.8-2-.9h-.9s-1.2 0-1.3-.5c0 0 0-.8.8-.9H48s1.1 0 1.2.4v.9l-.9 7.7s-.3 1-.6 1.2c0 0-.5 0-.5-.6v-.7l.2-2.5s0-3.1-1.8-4.1c0 0-1.5-.9-5-.9h-6.4s-1.7 0-2 .5l-.2.6v.1l-.2.6-2.7 10.8h4.2s3.4 0 4.5-1.3c0 0 .8-.9 1.4-3.1 0 0 .2-.8.6-.8 0 0 .6 0 .6.5l-2.6 10.5s-.2.9-.7.9c0 0-.6 0-.6-.5l.2-.5s.3-1.3.3-2.2c0 0 0-1.2-.7-1.6 0 0-.8-.5-3.1-.5h-4.5l-3 12.3-.3 1s0 .4.4.5h7.8s5.5 0 8-2.5c0 0 1.8-1.6 3.8-6l.5-1.1s.1-.6.5-.6c0 0 .6 0 .6.5l-.2.7z" fill="#00f"/></g></svg>